# xmcd
#
# Track frame offsets: 
#        150
#        19612
#        42290
#
# Disc length: 806 seconds
#
# Revision: 0
# Processed by: cddbd v1.5.2PL0 Copyright (c) Steve Scherf et al.
# Submitted via: ExactAudioCopyFreeDBPlugin 1.0
#
DISCID=19032403
DTITLE=DS455 - Night 4 Playaz
DYEAR=2000
DGENRE=Hip-Hop
TTITLE0=Night 4 Playaz(feat.MAY)
TTITLE1=Casino Drive
TTITLE2=Night 4 Playaz(Radio Edit)(feat.MAY)
EXTD=
EXTT0=
EXTT1=
EXTT2=
PLAYORDER=
